<?xml version="1.0" encoding="UTF-8"?>
<!DOCTYPE svg PUBLIC "-//W3C//DTD SVG 1.1//EN" "http://www.w3.org/Graphics/SVG/1.1/DTD/svg11.dtd">
<svg xmlns="http://www.w3.org/2000/svg" version="1.1" width="1024px" height="1024px" style="shape-rendering:geometricPrecision; text-rendering:geometricPrecision; image-rendering:optimizeQuality; fill-rule:evenodd; clip-rule:evenodd" xmlns:xlink="http://www.w3.org/1999/xlink">
<g><path style="opacity:1" fill="#030303" d="M 938.5,17.5 C 939.492,17.3284 940.158,17.6618 940.5,18.5C 942.612,20.7705 945.279,22.1039 948.5,22.5C 952.462,25.4884 956.462,28.4884 960.5,31.5C 962.167,32.5 963.5,33.8333 964.5,35.5C 967.503,39.5086 970.503,43.5086 973.5,47.5C 975.588,49.3356 976.921,51.6689 977.5,54.5C 985.727,76.9615 985.394,99.2949 976.5,121.5C 975,125.173 973,128.506 970.5,131.5C 967.677,134.475 965.344,137.808 963.5,141.5C 962.167,143.5 960.5,145.167 958.5,146.5C 956.413,147.585 955.08,149.251 954.5,151.5C 949.139,157.193 943.805,162.86 938.5,168.5C 937.167,169.167 936.167,170.167 935.5,171.5C 934.488,172.872 933.488,174.205 932.5,175.5C 928.434,178.563 925.101,182.229 922.5,186.5C 921.5,188.167 920.167,189.5 918.5,190.5C 915.427,192.569 913.094,195.236 911.5,198.5C 910.833,199.833 909.833,200.833 908.5,201.5C 905.427,203.569 903.094,206.236 901.5,209.5C 900.833,210.833 899.833,211.833 898.5,212.5C 893.811,216.222 889.811,220.555 886.5,225.5C 886.5,226.167 886.167,226.5 885.5,226.5C 882.757,228.239 880.757,230.573 879.5,233.5C 879.5,234.167 879.167,234.5 878.5,234.5C 873.77,238.227 869.77,242.56 866.5,247.5C 862.766,250.231 859.766,253.564 857.5,257.5C 856.833,258.833 855.833,259.833 854.5,260.5C 854.11,263.726 855.443,266.393 858.5,268.5C 860.262,269.262 861.262,270.596 861.5,272.5C 863.435,276.707 866.102,280.373 869.5,283.5C 869.427,285.027 870.094,286.027 871.5,286.5C 871.427,288.027 872.094,289.027 873.5,289.5C 875.201,294.263 877.868,298.263 881.5,301.5C 881.259,304.034 882.259,305.7 884.5,306.5C 885.404,307.209 885.737,308.209 885.5,309.5C 885.427,311.027 886.094,312.027 887.5,312.5C 888.338,312.842 888.672,313.508 888.5,314.5C 888.427,316.027 889.094,317.027 890.5,317.5C 890.75,319.674 891.75,321.341 893.5,322.5C 895.142,328.451 897.809,333.784 901.5,338.5C 902.773,340.713 903.773,343.046 904.5,345.5C 907.656,352.99 910.989,360.323 914.5,367.5C 916.794,370.37 918.128,373.703 918.5,377.5C 922.129,389.39 926.129,401.057 930.5,412.5C 931.434,413.568 931.768,414.901 931.5,416.5C 931.41,419.152 932.076,421.485 933.5,423.5C 934.005,426.521 934.672,429.521 935.5,432.5C 935.747,433.713 936.414,434.38 937.5,434.5C 937.5,435.167 937.5,435.833 937.5,436.5C 936.876,436.917 936.543,437.584 936.5,438.5C 938.633,448.685 940.967,458.685 943.5,468.5C 943.306,475.16 944.306,481.493 946.5,487.5C 947.194,492.805 947.528,498.138 947.5,503.5C 946.931,507.329 947.598,510.663 949.5,513.5C 949.5,515.167 949.5,516.833 949.5,518.5C 948.523,521.287 948.19,524.287 948.5,527.5C 948.5,536.167 948.5,544.833 948.5,553.5C 948.183,557.702 948.517,561.702 949.5,565.5C 949.5,567.167 949.5,568.833 949.5,570.5C 947.612,572.988 946.945,575.988 947.5,579.5C 947.075,589.896 946.075,600.23 944.5,610.5C 943.073,612.148 942.24,614.148 942,616.5C 941.554,619.343 941.054,622.176 940.5,625C 940.528,626.07 940.861,626.903 941.5,627.5C 941.5,627.833 941.5,628.167 941.5,628.5C 940.883,628.611 940.383,628.944 940,629.5C 939.167,632.833 938.333,636.167 937.5,639.5C 937.543,640.416 937.876,641.083 938.5,641.5C 938.5,641.833 938.5,642.167 938.5,642.5C 936.955,643.23 936.122,644.563 936,646.5C 935.564,648.847 935.064,651.181 934.5,653.5C 934.543,654.416 934.876,655.083 935.5,655.5C 935.5,655.833 935.5,656.167 935.5,656.5C 933.952,656.821 933.285,657.821 933.5,659.5C 933.371,661.216 933.038,662.883 932.5,664.5C 931.883,664.611 931.383,664.944 931,665.5C 927.13,678.943 922.963,692.276 918.5,705.5C 918.598,707.553 917.931,709.22 916.5,710.5C 912.13,719.256 908.13,728.256 904.5,737.5C 904.008,739.819 903.008,741.819 901.5,743.5C 898.653,747.86 896.32,752.527 894.5,757.5C 894.672,758.492 894.338,759.158 893.5,759.5C 891.75,760.659 890.75,762.326 890.5,764.5C 889.89,766.434 888.89,768.101 887.5,769.5C 886.094,769.973 885.427,770.973 885.5,772.5C 885.443,773.609 885.11,774.609 884.5,775.5C 882.259,776.3 881.259,777.966 881.5,780.5C 879.046,782.702 877.046,785.368 875.5,788.5C 875.5,788.833 875.5,789.167 875.5,789.5C 874.094,789.973 873.427,790.973 873.5,792.5C 873.5,793.167 873.167,793.5 872.5,793.5C 871.094,793.973 870.427,794.973 870.5,796.5C 868.178,797.802 866.845,799.802 866.5,802.5C 866.5,802.833 866.5,803.167 866.5,803.5C 865.504,803.414 864.671,803.748 864,804.5C 862.579,806.405 861.412,808.405 860.5,810.5C 858.738,811.262 857.738,812.596 857.5,814.5C 855.738,815.262 854.738,816.596 854.5,818.5C 854.5,818.833 854.5,819.167 854.5,819.5C 852.983,819.511 851.816,820.177 851,821.5C 849.579,823.405 848.412,825.405 847.5,827.5C 846.136,829.191 844.803,830.858 843.5,832.5C 840.757,834.239 838.757,836.573 837.5,839.5C 835.833,840.5 834.5,841.833 833.5,843.5C 832.2,846.432 830.2,848.766 827.5,850.5C 824.5,852.833 821.833,855.5 819.5,858.5C 818.833,859.833 817.833,860.833 816.5,861.5C 812.5,864.833 808.833,868.5 805.5,872.5C 804.5,874.167 803.167,875.5 801.5,876.5C 800.5,876.833 799.833,877.5 799.5,878.5C 799.5,879.167 799.167,879.5 798.5,879.5C 796.251,880.08 794.585,881.413 793.5,883.5C 793.167,884.5 792.5,885.167 791.5,885.5C 789.973,885.427 788.973,886.094 788.5,887.5C 787.5,889.167 786.167,890.5 784.5,891.5C 780.637,892.694 777.637,895.027 775.5,898.5C 773.596,898.738 772.262,899.738 771.5,901.5C 771.5,902.167 771.167,902.5 770.5,902.5C 768.973,902.427 767.973,903.094 767.5,904.5C 767.5,905.167 767.167,905.5 766.5,905.5C 761.12,907.855 756.454,911.188 752.5,915.5C 750.853,917.326 748.853,918.66 746.5,919.5C 742.66,921.811 738.66,923.977 734.5,926C 732.937,926.759 731.937,927.926 731.5,929.5C 728.661,931.42 725.661,933.087 722.5,934.5C 719.166,934.981 716.833,936.647 715.5,939.5C 715.167,939.5 714.833,939.5 714.5,939.5C 714.44,938.957 714.107,938.624 713.5,938.5C 708.833,940.833 704.167,943.167 699.5,945.5C 698.702,945.957 698.369,946.624 698.5,947.5C 696.95,948.441 695.284,949.107 693.5,949.5C 690.733,949.87 688.733,951.204 687.5,953.5C 687.167,953.5 686.833,953.5 686.5,953.5C 686.44,952.957 686.107,952.624 685.5,952.5C 678.7,955.822 671.7,958.656 664.5,961C 663.244,961.417 662.577,962.25 662.5,963.5C 661.833,963.833 661.167,964.167 660.5,964.5C 660.44,963.957 660.107,963.624 659.5,963.5C 658.205,964.098 656.872,964.598 655.5,965C 654.244,965.417 653.577,966.25 653.5,967.5C 653.167,967.5 652.833,967.5 652.5,967.5C 651.377,966.243 650.711,966.576 650.5,968.5C 647.888,969.371 645.221,970.037 642.5,970.5C 642.44,969.957 642.107,969.624 641.5,969.5C 636.266,971.475 630.933,973.142 625.5,974.5C 624.287,974.747 623.62,975.414 623.5,976.5C 620.237,977.482 616.903,978.149 613.5,978.5C 611.821,978.285 610.821,978.952 610.5,980.5C 610.167,980.5 609.833,980.5 609.5,980.5C 608.053,979.115 607.053,979.448 606.5,981.5C 605.833,981.5 605.167,981.5 604.5,981.5C 603.377,980.243 602.711,980.576 602.5,982.5C 601.833,982.5 601.167,982.5 600.5,982.5C 599.053,981.115 598.053,981.448 597.5,983.5C 597.167,983.5 596.833,983.5 596.5,983.5C 596.083,982.876 595.416,982.543 594.5,982.5C 593.287,982.747 592.62,983.414 592.5,984.5C 592.167,984.5 591.833,984.5 591.5,984.5C 589.872,983.147 588.538,983.481 587.5,985.5C 586.833,985.5 586.167,985.5 585.5,985.5C 583.872,984.147 582.538,984.481 581.5,986.5C 581.167,986.5 580.833,986.5 580.5,986.5C 579.726,985.853 578.726,985.52 577.5,985.5C 574.174,986.047 570.84,986.547 567.5,987C 566.944,987.383 566.611,987.883 566.5,988.5C 566.167,988.5 565.833,988.5 565.5,988.5C 564.726,987.853 563.726,987.52 562.5,987.5C 534.947,990.987 507.28,992.321 479.5,991.5C 478.167,991.5 476.833,991.5 475.5,991.5C 468.738,989.847 461.738,989.18 454.5,989.5C 453.167,989.5 451.833,989.5 450.5,989.5C 447.149,987.861 443.482,986.861 439.5,986.5C 438.584,986.543 437.917,986.876 437.5,987.5C 436.833,987.5 436.167,987.5 435.5,987.5C 434.848,986.275 433.681,985.608 432,985.5C 429.621,984.805 427.455,984.805 425.5,985.5C 425.167,985.5 424.833,985.5 424.5,985.5C 424.389,984.883 424.056,984.383 423.5,984C 421.153,983.564 418.819,983.064 416.5,982.5C 415.584,982.543 414.917,982.876 414.5,983.5C 410.476,982.962 406.476,982.295 402.5,981.5C 401.947,979.448 400.947,979.115 399.5,980.5C 399.167,980.5 398.833,980.5 398.5,980.5C 398.179,978.952 397.179,978.285 395.5,978.5C 389.811,976.053 383.811,974.386 377.5,973.5C 377.167,973.5 376.833,973.5 376.5,973.5C 373.092,971.185 369.259,969.518 365,968.5C 364.235,968.57 363.735,968.903 363.5,969.5C 363.167,969.5 362.833,969.5 362.5,969.5C 360.088,967.119 357.088,965.452 353.5,964.5C 352.893,964.624 352.56,964.957 352.5,965.5C 351.833,965.5 351.167,965.5 350.5,965.5C 350.265,964.903 349.765,964.57 349,964.5C 345.346,965.062 341.846,965.729 338.5,966.5C 338.167,966.5 337.833,966.5 337.5,966.5C 336.7,964.259 335.034,963.259 332.5,963.5C 332.44,962.957 332.107,962.624 331.5,962.5C 330.503,969.134 330.17,975.8 330.5,982.5C 327.696,989.3 322.696,993.634 315.5,995.5C 314.053,994.115 313.053,994.448 312.5,996.5C 311.833,996.5 311.167,996.5 310.5,996.5C 309.053,995.115 308.053,995.448 307.5,997.5C 307.167,997.5 306.833,997.5 306.5,997.5C 305.377,996.243 304.711,996.576 304.5,998.5C 302.565,999.15 300.565,999.483 298.5,999.5C 298.083,998.876 297.416,998.543 296.5,998.5C 294.181,999.064 291.847,999.564 289.5,1000C 288.944,1000.38 288.611,1000.88 288.5,1001.5C 288.167,1001.5 287.833,1001.5 287.5,1001.5C 282.034,1001.19 276.367,1001.19 270.5,1001.5C 268.481,1000.07 266.314,998.733 264,997.5C 263.601,997.728 263.435,998.062 263.5,998.5C 262.5,997.833 261.5,997.167 260.5,996.5C 260.617,994.516 259.95,992.85 258.5,991.5C 256.635,994.226 255.635,997.226 255.5,1000.5C 254.095,1004.24 251.429,1006.57 247.5,1007.5C 245.81,1007.86 244.81,1008.86 244.5,1010.5C 233.833,1010.5 223.167,1010.5 212.5,1010.5C 212.03,1009.31 211.03,1008.64 209.5,1008.5C 208.274,1008.52 207.274,1008.85 206.5,1009.5C 206.167,1009.5 205.833,1009.5 205.5,1009.5C 204.817,1007.82 203.483,1007.16 201.5,1007.5C 195.366,1007.22 189.7,1005.55 184.5,1002.5C 182.522,999.667 180.689,996.667 179,993.5C 178.501,989.848 178.335,986.182 178.5,982.5C 178.877,980.742 179.544,979.075 180.5,977.5C 180.167,977.167 179.833,976.833 179.5,976.5C 177.902,978.698 176.569,981.031 175.5,983.5C 175.833,984.167 176.167,984.833 176.5,985.5C 175.391,985.557 174.391,985.89 173.5,986.5C 172.094,986.973 171.427,987.973 171.5,989.5C 171.167,990.5 170.5,991.167 169.5,991.5C 167.973,991.427 166.973,992.094 166.5,993.5C 159.499,996.166 152.499,996.166 145.5,993.5C 140.85,991.196 136.183,988.863 131.5,986.5C 131.238,984.436 130.071,983.103 128,982.5C 127.601,982.728 127.435,983.062 127.5,983.5C 127.167,983.5 126.833,983.5 126.5,983.5C 125.135,981.14 123.135,979.473 120.5,978.5C 118.589,977.925 116.922,976.925 115.5,975.5C 111.884,971.546 108.217,967.546 104.5,963.5C 103.662,963.158 103.328,962.492 103.5,961.5C 103.058,959.028 102.725,956.528 102.5,954C 103.025,950.459 103.692,946.959 104.5,943.5C 105.906,943.027 106.573,942.027 106.5,940.5C 106.833,939.5 107.5,938.833 108.5,938.5C 111.615,936.572 113.448,933.906 114,930.5C 112.855,931.636 111.688,932.636 110.5,933.5C 110.5,933.833 110.5,934.167 110.5,934.5C 110.167,934.5 109.833,934.5 109.5,934.5C 107.5,934.5 106.5,935.5 106.5,937.5C 105.883,937.389 105.383,937.056 105,936.5C 98.4238,943.039 90.5904,945.206 81.5,943C 77.7587,941.262 74.592,938.762 72,935.5C 68.637,929.991 65.137,924.658 61.5,919.5C 60.0401,917.537 58.3734,915.704 56.5,914C 57.056,913.617 57.3893,913.117 57.5,912.5C 53.935,904.972 51.2684,897.138 49.5,889C 49.6563,884.864 50.823,881.031 53,877.5C 55.4786,875.034 57.9786,872.701 60.5,870.5C 61.1667,870.5 61.5,870.167 61.5,869.5C 62.1667,869.5 62.8333,869.5 63.5,869.5C 64.2891,869.217 64.9558,868.717 65.5,868C 60.4682,867.664 55.4682,867.164 50.5,866.5C 48.1472,864.477 45.8138,862.477 43.5,860.5C 41.0446,854.793 39.5446,848.793 39,842.5C 38.6174,841.944 38.1174,841.611 37.5,841.5C 37.5,840.833 37.5,840.167 37.5,839.5C 38.1471,838.726 38.4805,837.726 38.5,836.5C 38.6598,834.645 37.9931,833.312 36.5,832.5C 36.5,823.167 36.5,813.833 36.5,804.5C 38.7563,800.903 41.4229,797.569 44.5,794.5C 47.4596,792.07 50.7929,790.403 54.5,789.5C 53.5623,786.843 51.5623,784.51 48.5,782.5C 47.7081,776.87 47.3748,771.203 47.5,765.5C 47.1984,762.941 47.5318,760.607 48.5,758.5C 51.4657,750.088 53.9657,741.421 56,732.5C 57.9474,728.724 60.4474,725.39 63.5,722.5C 65.1757,720.166 67.509,719.166 70.5,719.5C 73.8984,719.82 77.2317,719.487 80.5,718.5C 78.8573,713.86 76.8573,709.527 74.5,705.5C 73.6618,705.158 73.3284,704.492 73.5,703.5C 72.959,698.835 71.2923,694.835 68.5,691.5C 68.5,691.167 68.5,690.833 68.5,690.5C 69.0431,690.44 69.3764,690.107 69.5,689.5C 66.9664,681.899 64.6331,674.232 62.5,666.5C 62.2528,665.287 61.5862,664.62 60.5,664.5C 60.5,664.167 60.5,663.833 60.5,663.5C 60.8294,660.772 60.1628,658.438 58.5,656.5C 58.5,656.167 58.5,655.833 58.5,655.5C 57.1671,648.835 55.8338,642.168 54.5,635.5C 50.5066,615.484 47.1732,595.484 44.5,575.5C 44.5,573.833 44.5,572.167 44.5,570.5C 44.5,563.833 44.5,557.167 44.5,550.5C 44.5,542.833 44.5,535.167 44.5,527.5C 44.5,523.167 44.5,518.833 44.5,514.5C 44.2457,506.277 44.9124,498.277 46.5,490.5C 48.0287,483.34 49.3621,476.007 50.5,468.5C 50.4573,467.584 50.1239,466.917 49.5,466.5C 49.5,466.167 49.5,465.833 49.5,465.5C 50.9468,464.866 51.6134,463.699 51.5,462C 51.472,460.93 51.1386,460.097 50.5,459.5C 50.5,459.167 50.5,458.833 50.5,458.5C 51.1174,458.389 51.6174,458.056 52,457.5C 54.2328,447.169 56.3995,436.835 58.5,426.5C 58.2322,424.901 58.5655,423.568 59.5,422.5C 60.9238,420.485 61.5905,418.152 61.5,415.5C 65.6693,403.659 69.6693,391.659 73.5,379.5C 73.9802,376.557 74.9802,373.89 76.5,371.5C 79.9429,365.6 82.6096,359.267 84.5,352.5C 86.0075,350.819 87.0075,348.819 87.5,346.5C 88.5612,343.378 89.8946,340.378 91.5,337.5C 92.4584,337.047 93.2917,336.381 94,335.5C 95.7807,331.907 97.2807,328.24 98.5,324.5C 100.408,323.514 101.408,321.848 101.5,319.5C 102.24,316.382 103.906,313.382 106.5,310.5C 110.32,305.539 113.653,300.206 116.5,294.5C 116.5,294.167 116.5,293.833 116.5,293.5C 117.906,293.027 118.573,292.027 118.5,290.5C 123.27,285.393 127.27,279.727 130.5,273.5C 132.262,272.738 133.262,271.404 133.5,269.5C 135.262,268.738 136.262,267.404 136.5,265.5C 139.547,263.082 141.88,260.082 143.5,256.5C 145.914,255.089 147.581,253.089 148.5,250.5C 150.547,248.45 152.214,246.117 153.5,243.5C 156.833,242.167 159.167,239.833 160.5,236.5C 170.139,226.527 179.806,216.527 189.5,206.5C 192.335,203.835 195.335,201.335 198.5,199C 200.141,197.871 201.141,196.371 201.5,194.5C 202.833,193.5 204.167,192.5 205.5,191.5C 209.482,188.848 213.149,185.848 216.5,182.5C 217.262,180.738 218.596,179.738 220.5,179.5C 225.538,176.313 230.205,172.647 234.5,168.5C 234.5,167.833 234.833,167.5 235.5,167.5C 237.027,167.573 238.027,166.906 238.5,165.5C 238.973,164.094 239.973,163.427 241.5,163.5C 243.833,163.167 245.167,161.833 245.5,159.5C 245.833,159.5 246.167,159.5 246.5,159.5C 246.435,159.938 246.601,160.272 247,160.5C 249.748,158.542 252.582,156.709 255.5,155C 257.063,154.241 258.063,153.074 258.5,151.5C 260.216,149.975 262.216,148.975 264.5,148.5C 267.991,147.439 270.658,145.439 272.5,142.5C 274.05,141.559 275.716,140.893 277.5,140.5C 281.816,139.623 285.482,137.623 288.5,134.5C 288.842,133.662 289.508,133.328 290.5,133.5C 295.229,132.145 299.229,129.812 302.5,126.5C 302.833,126.5 303.167,126.5 303.5,126.5C 303.56,127.043 303.893,127.376 304.5,127.5C 307.499,126.524 309.832,124.858 311.5,122.5C 315.065,120.884 318.731,119.551 322.5,118.5C 325.267,118.13 327.267,116.796 328.5,114.5C 330.833,113.833 333.167,113.167 335.5,112.5C 335.56,113.043 335.893,113.376 336.5,113.5C 337.795,112.902 339.128,112.402 340.5,112C 341.756,111.583 342.423,110.75 342.5,109.5C 348.02,107.37 353.686,105.703 359.5,104.5C 360.833,104.5 361.5,103.833 361.5,102.5C 361.833,102.5 362.167,102.5 362.5,102.5C 362.735,103.097 363.235,103.43 364,103.5C 366.774,102.464 369.607,101.631 372.5,101C 374.119,100.764 375.119,99.9311 375.5,98.5C 376.167,98.5 376.833,98.5 377.5,98.5C 377.735,99.0967 378.235,99.4301 379,99.5C 381.185,99.3023 382.685,98.3023 383.5,96.5C 395.371,93.5325 407.371,91.1992 419.5,89.5C 421.781,89.9227 423.448,89.256 424.5,87.5C 424.833,87.5 425.167,87.5 425.5,87.5C 425.917,88.1239 426.584,88.4573 427.5,88.5C 430.475,87.8607 433.475,87.3607 436.5,87C 437.056,86.6174 437.389,86.1174 437.5,85.5C 438.167,85.5 438.833,85.5 439.5,85.5C 440.274,86.1471 441.274,86.4805 442.5,86.5C 444.355,86.6598 445.688,85.9931 446.5,84.5C 447.5,84.5 448.5,84.5 449.5,84.5C 450.622,85.1558 451.955,85.4892 453.5,85.5C 455.333,85.4146 456.666,84.7479 457.5,83.5C 457.833,83.5 458.167,83.5 458.5,83.5C 459.793,84.1582 461.293,84.4915 463,84.5C 465.821,84.5922 468.321,83.9256 470.5,82.5C 472.5,82.5 474.5,82.5 476.5,82.5C 491.167,83.8333 505.833,83.8333 520.5,82.5C 522.833,82.5 525.167,82.5 527.5,82.5C 528.134,83.9468 529.301,84.6134 531,84.5C 532.07,84.472 532.903,84.1386 533.5,83.5C 534.167,83.5 534.833,83.5 535.5,83.5C 535.611,84.1174 535.944,84.6174 536.5,85C 540.676,85.4269 544.842,85.9269 549,86.5C 550.385,86.4857 551.551,86.1524 552.5,85.5C 553.5,85.5 554.5,85.5 555.5,85.5C 555.62,86.5862 556.287,87.2528 557.5,87.5C 558.416,87.4573 559.083,87.1239 559.5,86.5C 560.167,86.5 560.833,86.5 561.5,86.5C 561.97,87.6935 562.97,88.3601 564.5,88.5C 565.726,88.4805 566.726,88.1471 567.5,87.5C 567.833,87.5 568.167,87.5 568.5,87.5C 569.918,89.3079 571.918,89.9746 574.5,89.5C 575.167,89.5 575.833,89.5 576.5,89.5C 576.611,90.1174 576.944,90.6174 577.5,91C 579.81,91.4966 582.143,91.6633 584.5,91.5C 585.167,91.5 585.833,91.5 586.5,91.5C 586.962,92.8799 587.962,93.5466 589.5,93.5C 592.208,94.0411 594.874,94.7077 597.5,95.5C 598.107,95.3764 598.44,95.0431 598.5,94.5C 599.167,94.5 599.833,94.5 600.5,94.5C 602.8,97.0516 605.467,97.7183 608.5,96.5C 610.117,97.038 611.784,97.3713 613.5,97.5C 613.711,99.4241 614.377,99.7574 615.5,98.5C 616.167,98.5 616.833,98.5 617.5,98.5C 617.577,99.7498 618.244,100.583 619.5,101C 621.355,101.422 623.189,101.922 625,102.5C 625.765,102.43 626.265,102.097 626.5,101.5C 626.833,101.5 627.167,101.5 627.5,101.5C 628.895,103.379 630.895,104.379 633.5,104.5C 635.786,104.595 637.786,105.262 639.5,106.5C 641.109,107.771 642.942,108.771 645,109.5C 645.399,109.272 645.565,108.938 645.5,108.5C 646.167,108.5 646.833,108.5 647.5,108.5C 648.967,110.363 650.967,111.696 653.5,112.5C 654.107,112.376 654.44,112.043 654.5,111.5C 654.833,111.5 655.167,111.5 655.5,111.5C 655.711,113.424 656.377,113.757 657.5,112.5C 660.579,113.304 663.579,114.304 666.5,115.5C 667.035,117.446 668.368,118.446 670.5,118.5C 672.579,118.971 674.579,119.637 676.5,120.5C 676.369,121.376 676.702,122.043 677.5,122.5C 680.427,123.801 683.427,124.801 686.5,125.5C 690.732,128.461 695.066,130.461 699.5,131.5C 701.969,132.569 704.302,133.902 706.5,135.5C 706.369,136.376 706.702,137.043 707.5,137.5C 710.079,138.706 712.579,140.039 715,141.5C 715.399,141.272 715.565,140.938 715.5,140.5C 715.833,140.5 716.167,140.5 716.5,140.5C 716.414,141.496 716.748,142.329 717.5,143C 721.22,144.86 724.886,146.693 728.5,148.5C 730.062,148.733 731.395,149.4 732.5,150.5C 732.937,152.074 733.937,153.241 735.5,154C 739.268,156.3 743.102,158.467 747,160.5C 749.281,159.224 751.281,157.557 753,155.5C 757.023,149.986 761.19,144.653 765.5,139.5C 770.2,134.801 774.534,129.801 778.5,124.5C 778.833,123.5 779.5,122.833 780.5,122.5C 784.971,118.215 788.971,113.548 792.5,108.5C 792.833,107.5 793.5,106.833 794.5,106.5C 797.573,104.431 799.906,101.764 801.5,98.5C 804.243,96.7607 806.243,94.4274 807.5,91.5C 807.833,90.5 808.5,89.8333 809.5,89.5C 812.243,87.7607 814.243,85.4274 815.5,82.5C 815.833,81.5 816.5,80.8333 817.5,80.5C 822.533,75.4685 827.199,70.1352 831.5,64.5C 836.533,59.4685 841.199,54.1352 845.5,48.5C 846.167,47.1667 847.167,46.1667 848.5,45.5C 852.138,41.5259 855.805,37.5259 859.5,33.5C 859.833,32.5 860.5,31.8333 861.5,31.5C 867.448,28.0413 873.114,24.3746 878.5,20.5C 880.509,18.9348 882.843,17.9348 885.5,17.5C 894.314,15.0503 903.314,13.717 912.5,13.5C 921.35,13.7531 930.017,15.0864 938.5,17.5 Z M 175.5,983.5 C 176.167,983.5 176.833,983.5 177.5,983.5C 177.672,984.492 177.338,985.158 176.5,985.5C 176.167,984.833 175.833,984.167 175.5,983.5 Z"/></g>
<g><path style="opacity:1" fill="#868786" d="M 938.5,17.5 C 930.017,15.0864 921.35,13.7531 912.5,13.5C 903.314,13.717 894.314,15.0503 885.5,17.5C 893.63,13.1064 902.464,11.4397 912,12.5C 919.258,12.33 926.424,12.9966 933.5,14.5C 935.336,15.3957 937.003,16.3957 938.5,17.5 Z"/></g>
<g><path style="opacity:1" fill="#656665" d="M 940.5,18.5 C 943.754,18.7936 946.421,20.127 948.5,22.5C 945.279,22.1039 942.612,20.7705 940.5,18.5 Z"/></g>
<g><path style="opacity:1" fill="#707171" d="M 878.5,20.5 C 873.114,24.3746 867.448,28.0413 861.5,31.5C 866.241,26.6154 871.908,22.9487 878.5,20.5 Z"/></g>
<g><path style="opacity:1" fill="#898888" d="M 948.5,22.5 C 953.691,24.0768 957.691,27.0768 960.5,31.5C 956.462,28.4884 952.462,25.4884 948.5,22.5 Z"/></g>
<g><path style="opacity:1" fill="#f8f8f8" d="M 905.5,34.5 C 934.893,33.7387 953.726,47.4053 962,75.5C 964.683,92.4337 961.016,107.767 951,121.5C 908.566,168.023 865.899,214.357 823,260.5C 710.82,378.38 598.986,496.547 487.5,615C 486.5,615.667 485.5,615.667 484.5,615C 467.434,597.931 449.768,581.598 431.5,566C 430.549,565.282 430.383,564.449 431,563.5C 576.667,394.5 722.333,225.5 868,56.5C 877.806,44.3548 890.306,37.0214 905.5,34.5 Z"/></g>
<g><path style="opacity:1" fill="#868989" d="M 859.5,33.5 C 855.805,37.5259 852.138,41.5259 848.5,45.5C 850.777,40.2227 854.444,36.2227 859.5,33.5 Z"/></g>
<g><path style="opacity:1" fill="#727272" d="M 964.5,35.5 C 969.032,38.3635 972.032,42.3635 973.5,47.5C 970.503,43.5086 967.503,39.5086 964.5,35.5 Z"/></g>
<g><path style="opacity:1" fill="#727375" d="M 845.5,48.5 C 841.199,54.1352 836.533,59.4685 831.5,64.5C 835.055,58.2729 839.722,52.9396 845.5,48.5 Z"/></g>
<g><path style="opacity:1" fill="#060606" d="M 908.5,65.5 C 925.846,69.0252 934.013,79.6918 933,97.5C 931.489,102.025 929.489,106.359 927,110.5C 915.384,122.905 903.884,135.405 892.5,148C 889.01,150.412 885.343,152.245 881.5,153.5C 875.797,153.625 870.13,153.292 864.5,152.5C 857.083,148.751 851.75,143.085 848.5,135.5C 847.725,130.203 847.392,124.87 847.5,119.5C 848.964,114.573 851.464,110.239 855,106.5C 866.516,94.6179 877.683,82.4512 888.5,70C 890.078,68.9055 891.745,68.0722 893.5,67.5C 898.384,66.0976 903.384,65.431 908.5,65.5 Z"/></g>
<g><path style="opacity:1" fill="#4b4c4b" d="M 908.5,65.5 C 903.384,65.431 898.384,66.0976 893.5,67.5C 898.261,64.6387 903.261,63.972 908.5,65.5 Z"/></g>
<g><path style="opacity:1" fill="#646566" d="M 831.5,64.5 C 827.199,70.1352 822.533,75.4685 817.5,80.5C 821.055,74.2729 825.722,68.9396 831.5,64.5 Z"/></g>
<g><path style="opacity:1" fill="#6e6f6f" d="M 520.5,82.5 C 505.833,83.8333 491.167,83.8333 476.5,82.5C 491.162,81.208 505.828,81.208 520.5,82.5 Z"/></g>
<g><path style="opacity:1" fill="#6a6d6b" d="M 470.5,82.5 C 468.321,83.9256 465.821,84.5922 463,84.5C 461.293,84.4915 459.793,84.1582 458.5,83.5C 462.452,82.7279 466.452,82.3946 470.5,82.5 Z"/></g>
<g><path style="opacity:1" fill="#7a7c7a" d="M 527.5,82.5 C 529.5,82.8333 531.5,83.1667 533.5,83.5C 532.903,84.1386 532.07,84.472 531,84.5C 529.301,84.6134 528.134,83.9468 527.5,82.5 Z"/></g>
<g><path style="opacity:1" fill="#f4f4f4" d="M 900.5,81.5 C 915.215,81.3709 919.715,88.0376 914,101.5C 903.167,113 892.333,124.5 881.5,136C 866.724,139.891 861.224,134.391 865,119.5C 876.627,106.527 888.46,93.8605 900.5,81.5 Z"/></g>
<g><path style="opacity:1" fill="#6f7070" d="M 457.5,83.5 C 456.666,84.7479 455.333,85.4146 453.5,85.5C 451.955,85.4892 450.622,85.1558 449.5,84.5C 452.096,83.7347 454.763,83.4013 457.5,83.5 Z"/></g>
<g><path style="opacity:1" fill="#656766" d="M 535.5,83.5 C 541.262,83.7325 546.928,84.3992 552.5,85.5C 551.551,86.1524 550.385,86.4857 549,86.5C 544.842,85.9269 540.676,85.4269 536.5,85C 535.944,84.6174 535.611,84.1174 535.5,83.5 Z"/></g>
<g><path style="opacity:1" fill="#727275" d="M 815.5,82.5 C 814.243,85.4274 812.243,87.7607 809.5,89.5C 810.068,85.9326 812.068,83.5993 815.5,82.5 Z"/></g>
<g><path style="opacity:1" fill="#787878" d="M 446.5,84.5 C 445.688,85.9931 444.355,86.6598 442.5,86.5C 441.274,86.4805 440.274,86.1471 439.5,85.5C 441.806,85.0074 444.139,84.6741 446.5,84.5 Z"/></g>
<g><path style="opacity:1" fill="#808081" d="M 555.5,85.5 C 556.959,85.4326 558.292,85.7659 559.5,86.5C 559.083,87.1239 558.416,87.4573 557.5,87.5C 556.287,87.2528 555.62,86.5862 555.5,85.5 Z"/></g>
<g><path style="opacity:1" fill="#959696" d="M 437.5,85.5 C 437.389,86.1174 437.056,86.6174 436.5,87C 433.475,87.3607 430.475,87.8607 427.5,88.5C 426.584,88.4573 425.917,88.1239 425.5,87.5C 429.418,86.5584 433.418,85.8918 437.5,85.5 Z"/></g>
<g><path style="opacity:1" fill="#828180" d="M 561.5,86.5 C 563.621,86.3253 565.621,86.6586 567.5,87.5C 566.726,88.1471 565.726,88.4805 564.5,88.5C 562.97,88.3601 561.97,87.6935 561.5,86.5 Z"/></g>
<g><path style="opacity:1" fill="#767474" d="M 424.5,87.5 C 423.448,89.256 421.781,89.9227 419.5,89.5C 420.635,87.7868 422.302,87.1201 424.5,87.5 Z"/></g>
<g><path style="opacity:1" fill="#6e6e6e" d="M 568.5,87.5 C 571.01,87.0535 573.01,87.7202 574.5,89.5C 571.918,89.9746 569.918,89.3079 568.5,87.5 Z"/></g>
<g><path style="opacity:1" fill="#595a58" d="M 576.5,89.5 C 579.373,89.8023 582.039,90.469 584.5,91.5C 582.143,91.6633 579.81,91.4966 577.5,91C 576.944,90.6174 576.611,90.1174 576.5,89.5 Z"/></g>
<g><path style="opacity:1" fill="#545554" d="M 586.5,91.5 C 590.687,92.2133 594.687,93.2133 598.5,94.5C 598.44,95.0431 598.107,95.3764 597.5,95.5C 594.874,94.7077 592.208,94.0411 589.5,93.5C 587.962,93.5466 586.962,92.8799 586.5,91.5 Z"/></g>
<g><path style="opacity:1" fill="#7e7e7f" d="M 807.5,91.5 C 806.243,94.4274 804.243,96.7607 801.5,98.5C 802.757,95.5726 804.757,93.2393 807.5,91.5 Z"/></g>
<g><path style="opacity:1" fill="#606361" d="M 600.5,94.5 C 603.167,95.1667 605.833,95.8333 608.5,96.5C 605.467,97.7183 602.8,97.0516 600.5,94.5 Z"/></g>
<g><path style="opacity:1" fill="#5a5a5b" d="M 383.5,96.5 C 382.685,98.3023 381.185,99.3023 379,99.5C 378.235,99.4301 377.735,99.0967 377.5,98.5C 379.374,97.7148 381.374,97.0482 383.5,96.5 Z"/></g>
<g><path style="opacity:1" fill="#8a8b8a" d="M 613.5,97.5 C 614.492,97.3284 615.158,97.6618 615.5,98.5C 614.377,99.7574 613.711,99.4241 613.5,97.5 Z"/></g>
<g><path style="opacity:1" fill="#636364" d="M 617.5,98.5 C 620.632,99.36 623.632,100.36 626.5,101.5C 626.265,102.097 625.765,102.43 625,102.5C 623.189,101.922 621.355,101.422 619.5,101C 618.244,100.583 617.577,99.7498 617.5,98.5 Z"/></g>
<g><path style="opacity:1" fill="#7e7d7e" d="M 977.5,54.5 C 978.497,54.4701 979.164,54.9701 979.5,56C 986.295,76.893 986.129,97.7264 979,118.5C 978.623,119.942 977.79,120.942 976.5,121.5C 985.394,99.2949 985.727,76.9615 977.5,54.5 Z"/></g>
<g><path style="opacity:1" fill="#787a79" d="M 375.5,98.5 C 375.119,99.9311 374.119,100.764 372.5,101C 369.607,101.631 366.774,102.464 364,103.5C 363.235,103.43 362.735,103.097 362.5,102.5C 366.687,101.031 371.02,99.6977 375.5,98.5 Z"/></g>
<g><path style="opacity:1" fill="#8e8d8c" d="M 627.5,101.5 C 630.105,101.621 632.105,102.621 633.5,104.5C 630.895,104.379 628.895,103.379 627.5,101.5 Z"/></g>
<g><path style="opacity:1" fill="#767576" d="M 801.5,98.5 C 799.906,101.764 797.573,104.431 794.5,106.5C 795.441,102.619 797.774,99.9527 801.5,98.5 Z"/></g>
<g><path style="opacity:1" fill="#908d8f" d="M 361.5,102.5 C 361.5,103.833 360.833,104.5 359.5,104.5C 359.5,103.167 360.167,102.5 361.5,102.5 Z"/></g>
<g><path style="opacity:1" fill="#565454" d="M 639.5,106.5 C 641.786,106.595 643.786,107.262 645.5,108.5C 645.565,108.938 645.399,109.272 645,109.5C 642.942,108.771 641.109,107.771 639.5,106.5 Z"/></g>
<g><path style="opacity:1" fill="#f93238" d="M 516.5,110.5 C 524.517,110.501 532.517,110.834 540.5,111.5C 544.295,112.617 548.295,113.283 552.5,113.5C 606.743,120.979 657.743,138.145 705.5,165C 713,169.918 720.667,174.584 728.5,179C 729.022,179.561 729.355,180.228 729.5,181C 660.693,262.094 591.527,342.928 522,423.5C 517.43,428.313 513.097,433.313 509,438.5C 507.223,440.79 505.056,442.457 502.5,443.5C 431.294,347.058 400.961,238.724 411.5,118.5C 416.344,116.865 421.344,115.865 426.5,115.5C 456.318,111.624 486.318,109.957 516.5,110.5 Z"/></g>
<g><path style="opacity:1" fill="#64635f" d="M 647.5,108.5 C 649.987,109.323 652.321,110.323 654.5,111.5C 654.44,112.043 654.107,112.376 653.5,112.5C 650.967,111.696 648.967,110.363 647.5,108.5 Z"/></g>
<g><path style="opacity:1" fill="#5a5858" d="M 342.5,109.5 C 342.423,110.75 341.756,111.583 340.5,112C 339.128,112.402 337.795,112.902 336.5,113.5C 335.893,113.376 335.56,113.043 335.5,112.5C 337.679,111.323 340.013,110.323 342.5,109.5 Z"/></g>
<g><path style="opacity:1" fill="#d13b41" d="M 516.5,110.5 C 486.318,109.957 456.318,111.624 426.5,115.5C 456.268,109.781 486.268,108.115 516.5,110.5 Z"/></g>
<g><path style="opacity:1" fill="#6b1c1e" d="M 540.5,111.5 C 544.79,111.198 548.79,111.864 552.5,113.5C 548.295,113.283 544.295,112.617 540.5,111.5 Z"/></g>
<g><path style="opacity:1" fill="#82807e" d="M 655.5,111.5 C 656.492,111.328 657.158,111.662 657.5,112.5C 656.377,113.757 655.711,113.424 655.5,111.5 Z"/></g>
<g><path style="opacity:1" fill="#737577" d="M 792.5,108.5 C 788.971,113.548 784.971,118.215 780.5,122.5C 783.383,116.945 787.383,112.278 792.5,108.5 Z"/></g>
<g><path style="opacity:1" fill="#666867" d="M 328.5,114.5 C 327.267,116.796 325.267,118.13 322.5,118.5C 324.001,116.634 326.001,115.301 328.5,114.5 Z"/></g>
<g><path style="opacity:1" fill="#848484" d="M 666.5,115.5 C 668.455,115.799 669.789,116.799 670.5,118.5C 668.368,118.446 667.035,117.446 666.5,115.5 Z"/></g>
<g><path style="opacity:1" fill="#0c003e" d="M 411.5,118.5 C 400.961,238.724 431.294,347.058 502.5,443.5C 501.657,446.516 500.157,449.183 498,451.5C 469.939,483.058 442.439,515.058 415.5,547.5C 414.277,548.614 412.944,548.781 411.5,548C 403.345,540.177 394.345,533.51 384.5,528C 374.438,525.075 365.105,526.408 356.5,532C 345.853,540.648 338.353,551.481 334,564.5C 332.676,572.202 334.342,579.202 339,585.5C 341.847,589.011 344.68,592.511 347.5,596C 345.702,598.966 343.369,601.466 340.5,603.5C 319.148,580.084 297.815,556.751 276.5,533.5C 269.84,528.909 262.84,528.409 255.5,532C 246.319,541.014 237.319,550.181 228.5,559.5C 220.714,553.837 212.381,553.004 203.5,557C 192.268,567.563 181.768,578.73 172,590.5C 167.214,598.127 167.38,605.627 172.5,613C 159.949,624.55 148.449,637.05 138,650.5C 137.828,654.871 137.328,659.204 136.5,663.5C 128.215,659.202 120.215,659.702 112.5,665C 106.973,672.361 101.639,679.861 96.5,687.5C 95.1387,685.972 93.972,684.305 93,682.5C 47.5245,537.028 69.1911,402.695 158,279.5C 222.508,194.961 307.008,141.295 411.5,118.5 Z"/></g>
<g><path style="opacity:1" fill="#5c5d5c" d="M 676.5,120.5 C 680.083,121.797 683.416,123.463 686.5,125.5C 683.427,124.801 680.427,123.801 677.5,122.5C 676.702,122.043 676.369,121.376 676.5,120.5 Z"/></g>
<g><path style="opacity:1" fill="#575758" d="M 311.5,122.5 C 309.832,124.858 307.499,126.524 304.5,127.5C 303.893,127.376 303.56,127.043 303.5,126.5C 306.005,124.989 308.672,123.655 311.5,122.5 Z"/></g>
<g><path style="opacity:1" fill="#8a8988" d="M 686.5,125.5 C 691.251,126.71 695.584,128.71 699.5,131.5C 695.066,130.461 690.732,128.461 686.5,125.5 Z"/></g>
<g><path style="opacity:1" fill="#696868" d="M 302.5,126.5 C 299.229,129.812 295.229,132.145 290.5,133.5C 290.369,132.624 290.702,131.957 291.5,131.5C 295.312,130.093 298.978,128.426 302.5,126.5 Z"/></g>
<g><path style="opacity:1" fill="#8e9092" d="M 778.5,124.5 C 774.534,129.801 770.2,134.801 765.5,139.5C 768.719,133.609 773.052,128.609 778.5,124.5 Z"/></g>
<g><path style="opacity:1" fill="#959695" d="M 847.5,119.5 C 847.392,124.87 847.725,130.203 848.5,135.5C 846.994,132.644 846.328,129.477 846.5,126C 846.504,123.639 846.837,121.473 847.5,119.5 Z"/></g>
<g><path style="opacity:1" fill="#949396" d="M 970.5,131.5 C 969.657,135.844 967.324,139.177 963.5,141.5C 965.344,137.808 967.677,134.475 970.5,131.5 Z"/></g>
<g><path style="opacity:1" fill="#464646" d="M 288.5,134.5 C 285.482,137.623 281.816,139.623 277.5,140.5C 280.678,137.742 284.345,135.742 288.5,134.5 Z"/></g>
<g><path style="opacity:1" fill="#575856" d="M 706.5,135.5 C 709.696,136.929 712.696,138.595 715.5,140.5C 715.565,140.938 715.399,141.272 715,141.5C 712.579,140.039 710.079,138.706 707.5,137.5C 706.702,137.043 706.369,136.376 706.5,135.5 Z"/></g>
<g><path style="opacity:1" fill="#5b5b5a" d="M 716.5,140.5 C 720.881,142.684 724.881,145.35 728.5,148.5C 724.886,146.693 721.22,144.86 717.5,143C 716.748,142.329 716.414,141.496 716.5,140.5 Z"/></g>
<g><path style="opacity:1" fill="#787979" d="M 272.5,142.5 C 270.658,145.439 267.991,147.439 264.5,148.5C 264.414,147.504 264.748,146.671 265.5,146C 267.86,144.82 270.193,143.653 272.5,142.5 Z"/></g>
<g><path style="opacity:1" fill="#565555" d="M 958.5,146.5 C 957.92,148.749 956.587,150.415 954.5,151.5C 955.08,149.251 956.413,147.585 958.5,146.5 Z"/></g>
<g><path style="opacity:1" fill="#606060" d="M 864.5,152.5 C 870.13,153.292 875.797,153.625 881.5,153.5C 879.359,154.163 877.025,154.497 874.5,154.5C 870.859,154.685 867.526,154.019 864.5,152.5 Z"/></g>
<g><path style="opacity:1" fill="#6c6c6c" d="M 765.5,139.5 C 761.19,144.653 757.023,149.986 753,155.5C 751.281,157.557 749.281,159.224 747,160.5C 743.102,158.467 739.268,156.3 735.5,154C 733.937,153.241 732.937,152.074 732.5,150.5C 737.557,153.113 742.39,156.113 747,159.5C 752.951,152.57 759.117,145.903 765.5,139.5 Z"/></g>
<g><path style="opacity:1" fill="#595958" d="M 258.5,151.5 C 258.063,153.074 257.063,154.241 255.5,155C 252.582,156.709 249.748,158.542 247,160.5C 246.601,160.272 246.435,159.938 246.5,159.5C 250.205,156.474 254.205,153.808 258.5,151.5 Z"/></g>
<g><path style="opacity:1" fill="#5e605e" d="M 245.5,159.5 C 245.167,161.833 243.833,163.167 241.5,163.5C 242.167,161.5 243.5,160.167 245.5,159.5 Z"/></g>
<g><path style="opacity:1" fill="#7a787a" d="M 238.5,165.5 C 238.027,166.906 237.027,167.573 235.5,167.5C 235.973,166.094 236.973,165.427 238.5,165.5 Z"/></g>
<g><path style="opacity:1" fill="#7b767d" d="M 938.5,168.5 C 938.5,170.5 937.5,171.5 935.5,171.5C 936.167,170.167 937.167,169.167 938.5,168.5 Z"/></g>
<g><path style="opacity:1" fill="#646566" d="M 234.5,168.5 C 230.205,172.647 225.538,176.313 220.5,179.5C 223.99,174.412 228.657,170.745 234.5,168.5 Z"/></g>
<g><path style="opacity:1" fill="#706c70" d="M 932.5,175.5 C 929.899,179.771 926.566,183.437 922.5,186.5C 925.101,182.229 928.434,178.563 932.5,175.5 Z"/></g>
<g><path style="opacity:1" fill="#6e6d6e" d="M 216.5,182.5 C 213.149,185.848 209.482,188.848 205.5,191.5C 208.245,187.426 211.912,184.426 216.5,182.5 Z"/></g>
<g><path style="opacity:1" fill="#7b777c" d="M 918.5,190.5 C 916.906,193.764 914.573,196.431 911.5,198.5C 913.094,195.236 915.427,192.569 918.5,190.5 Z"/></g>
<g><path style="opacity:1" fill="#747777" d="M 201.5,194.5 C 201.141,196.371 200.141,197.871 198.5,199C 195.335,201.335 192.335,203.835 189.5,206.5C 192.479,201.521 196.479,197.521 201.5,194.5 Z"/></g>
<g><path style="opacity:1" fill="#726d74" d="M 908.5,201.5 C 906.906,204.764 904.573,207.431 901.5,209.5C 903.094,206.236 905.427,203.569 908.5,201.5 Z"/></g>
<g><path style="opacity:1" fill="#777a79" d="M 189.5,206.5 C 179.806,216.527 170.139,226.527 160.5,236.5C 160.709,235.078 161.209,233.745 162,232.5C 170.754,223.242 179.921,214.575 189.5,206.5 Z"/></g>
<g><path style="opacity:1" fill="#a19ea1" d="M 898.5,212.5 C 896.577,215.603 894.41,218.603 892,221.5C 890.549,223.464 888.716,224.797 886.5,225.5C 889.811,220.555 893.811,216.222 898.5,212.5 Z"/></g>
<g><path style="opacity:1" fill="#827f83" d="M 885.5,226.5 C 884.243,229.427 882.243,231.761 879.5,233.5C 880.757,230.573 882.757,228.239 885.5,226.5 Z"/></g>
<g><path style="opacity:1" fill="#5b5d5d" d="M 160.5,236.5 C 159.167,239.833 156.833,242.167 153.5,243.5C 155.5,240.833 157.833,238.5 160.5,236.5 Z"/></g>
<g><path style="opacity:1" fill="#878689" d="M 878.5,234.5 C 875.23,239.44 871.23,243.773 866.5,247.5C 869.77,242.56 873.77,238.227 878.5,234.5 Z"/></g>
<g><path style="opacity:1" fill="#909193" d="M 153.5,243.5 C 152.214,246.117 150.547,248.45 148.5,250.5C 149.01,247.326 150.677,244.992 153.5,243.5 Z"/></g>
<g><path style="opacity:1" fill="#918f93" d="M 866.5,247.5 C 864.234,251.436 861.234,254.769 857.5,257.5C 859.766,253.564 862.766,250.231 866.5,247.5 Z"/></g>
<g><path style="opacity:1" fill="#777777" d="M 148.5,250.5 C 147.581,253.089 145.914,255.089 143.5,256.5C 144.419,253.911 146.086,251.911 148.5,250.5 Z"/></g>
<g><path style="opacity:1" fill="#666668" d="M 143.5,256.5 C 141.88,260.082 139.547,263.082 136.5,265.5C 137.75,261.592 140.083,258.592 143.5,256.5 Z"/></g>
<g><path style="opacity:1" fill="#69686a" d="M 854.5,260.5 C 855.847,263.193 857.18,265.86 858.5,268.5C 855.443,266.393 854.11,263.726 854.5,260.5 Z"/></g>
<g><path style="opacity:1" fill="#787a7c" d="M 136.5,265.5 C 136.262,267.404 135.262,268.738 133.5,269.5C 133.738,267.596 134.738,266.262 136.5,265.5 Z"/></g>
<g><path style="opacity:1" fill="#747676" d="M 133.5,269.5 C 133.262,271.404 132.262,272.738 130.5,273.5C 130.738,271.596 131.738,270.262 133.5,269.5 Z"/></g>
<g><path style="opacity:1" fill="#7e8080" d="M 130.5,273.5 C 127.27,279.727 123.27,285.393 118.5,290.5C 121.765,284.299 125.765,278.632 130.5,273.5 Z"/></g>
<g><path style="opacity:1" fill="#8a8989" d="M 861.5,272.5 C 865.375,275.234 868.041,278.9 869.5,283.5C 866.102,280.373 863.435,276.707 861.5,272.5 Z"/></g>
<g><path style="opacity:1" fill="#f93238" d="M 918.5,605.5 C 916.955,606.23 916.122,607.563 916,609.5C 915.631,613.863 915.131,618.196 914.5,622.5C 911.941,622.198 909.607,622.532 907.5,623.5C 876.117,626.435 844.783,626.102 813.5,622.5C 804.395,620.29 795.062,618.623 785.5,617.5C 715.39,605.106 652.057,577.44 595.5,534.5C 674.832,449.669 754.665,365.336 835,281.5C 854.346,306.166 870.679,332.833 884,361.5C 919.071,439.39 930.571,520.723 918.5,605.5 Z"/></g>
<g><path style="opacity:1" fill="#949497" d="M 869.5,283.5 C 870.906,283.973 871.573,284.973 871.5,286.5C 870.094,286.027 869.427,285.027 869.5,283.5 Z"/></g>
<g><path style="opacity:1" fill="#858485" d="M 871.5,286.5 C 872.906,286.973 873.573,287.973 873.5,289.5C 872.094,289.027 871.427,288.027 871.5,286.5 Z"/></g>
<g><path style="opacity:1" fill="#9d9da0" d="M 118.5,290.5 C 118.573,292.027 117.906,293.027 116.5,293.5C 116.427,291.973 117.094,290.973 118.5,290.5 Z"/></g>
<g><path style="opacity:1" fill="#909092" d="M 873.5,289.5 C 876.65,293.119 879.316,297.119 881.5,301.5C 877.868,298.263 875.201,294.263 873.5,289.5 Z"/></g>
<g><path style="opacity:1" fill="#949695" d="M 116.5,294.5 C 113.653,300.206 110.32,305.539 106.5,310.5C 108.128,305.91 110.295,301.577 113,297.5C 113.759,295.937 114.926,294.937 116.5,294.5 Z"/></g>
<g><path style="opacity:1" fill="#888187" d="M 881.5,301.5 C 882.89,302.899 883.89,304.566 884.5,306.5C 882.259,305.7 881.259,304.034 881.5,301.5 Z"/></g>
<g><path style="opacity:1" fill="#7e8080" d="M 885.5,309.5 C 886.906,309.973 887.573,310.973 887.5,312.5C 886.094,312.027 885.427,311.027 885.5,309.5 Z"/></g>
<g><path style="opacity:1" fill="#8c888d" d="M 888.5,314.5 C 889.906,314.973 890.573,315.973 890.5,317.5C 889.094,317.027 888.427,316.027 888.5,314.5 Z"/></g>
<g><path style="opacity:1" fill="#908e8f" d="M 890.5,317.5 C 892.741,318.3 893.741,319.966 893.5,322.5C 891.75,321.341 890.75,319.674 890.5,317.5 Z"/></g>
<g><path style="opacity:1" fill="#5b5c5e" d="M 101.5,319.5 C 101.408,321.848 100.408,323.514 98.5,324.5C 98.5923,322.152 99.5923,320.486 101.5,319.5 Z"/></g>
<g><path style="opacity:1" fill="#7b7c7c" d="M 98.5,324.5 C 97.2807,328.24 95.7807,331.907 94,335.5C 93.2917,336.381 92.4584,337.047 91.5,337.5C 93.0741,332.68 95.4074,328.347 98.5,324.5 Z"/></g>
<g><path style="opacity:1" fill="#8c8b8d" d="M 893.5,322.5 C 896.69,327.547 899.357,332.88 901.5,338.5C 897.809,333.784 895.142,328.451 893.5,322.5 Z"/></g>
<g><path style="opacity:1" fill="#a1a1a2" d="M 87.5,346.5 C 87.0075,348.819 86.0075,350.819 84.5,352.5C 84.3862,349.784 85.3862,347.784 87.5,346.5 Z"/></g>
<g><path style="opacity:1" fill="#8a8a8b" d="M 904.5,345.5 C 906.335,346.122 907.502,347.456 908,349.5C 910.476,355.439 912.642,361.439 914.5,367.5C 910.989,360.323 907.656,352.99 904.5,345.5 Z"/></g>
<g><path style="opacity:1" fill="#7b7d7c" d="M 84.5,352.5 C 82.6096,359.267 79.9429,365.6 76.5,371.5C 78.379,364.753 81.0456,358.42 84.5,352.5 Z"/></g>
<g><path style="opacity:1" fill="#7c7a7c" d="M 918.5,377.5 C 919.497,377.47 920.164,377.97 920.5,379C 924.551,389.982 927.884,401.149 930.5,412.5C 926.129,401.057 922.129,389.39 918.5,377.5 Z"/></g>
<g><path style="opacity:1" fill="#8b8c8c" d="M 73.5,379.5 C 69.6693,391.659 65.6693,403.659 61.5,415.5C 63.3162,406.881 65.6496,398.381 68.5,390C 69.5488,386.074 71.2155,382.574 73.5,379.5 Z"/></g>
<g><path style="opacity:1" fill="#606160" d="M 61.5,415.5 C 61.5905,418.152 60.9238,420.485 59.5,422.5C 59.4095,419.848 60.0762,417.515 61.5,415.5 Z"/></g>
<g><path style="opacity:1" fill="#535154" d="M 931.5,416.5 C 932.924,418.515 933.59,420.848 933.5,423.5C 932.076,421.485 931.41,419.152 931.5,416.5 Z"/></g>
<g><path style="opacity:1" fill="#949396" d="M 933.5,423.5 C 934.117,423.611 934.617,423.944 935,424.5C 935.838,427.852 936.671,431.185 937.5,434.5C 936.414,434.38 935.747,433.713 935.5,432.5C 934.672,429.521 934.005,426.521 933.5,423.5 Z"/></g>
<g><path style="opacity:1" fill="#868786" d="M 58.5,426.5 C 56.3995,436.835 54.2328,447.169 52,457.5C 51.6174,458.056 51.1174,458.389 50.5,458.5C 52.3041,448.647 54.3041,438.813 56.5,429C 56.6842,427.624 57.3509,426.791 58.5,426.5 Z"/></g>
<g><path style="opacity:1" fill="#666465" d="M 937.5,436.5 C 940.56,446.845 942.56,457.511 943.5,468.5C 940.967,458.685 938.633,448.685 936.5,438.5C 936.543,437.584 936.876,436.917 937.5,436.5 Z"/></g>
<g><path style="opacity:1" fill="#696a6a" d="M 50.5,459.5 C 51.1386,460.097 51.472,460.93 51.5,462C 51.6134,463.699 50.9468,464.866 49.5,465.5C 49.5172,463.435 49.8505,461.435 50.5,459.5 Z"/></g>
<g><path style="opacity:1" fill="#535553" d="M 49.5,466.5 C 50.1239,466.917 50.4573,467.584 50.5,468.5C 49.3621,476.007 48.0287,483.34 46.5,490.5C 46.7537,482.393 47.7537,474.393 49.5,466.5 Z"/></g>
<g><path style="opacity:1" fill="#616061" d="M 943.5,468.5 C 944.897,474.639 945.897,480.973 946.5,487.5C 944.306,481.493 943.306,475.16 943.5,468.5 Z"/></g>
<g><path style="opacity:1" fill="#858383" d="M 947.5,503.5 C 949.175,506.507 949.841,509.84 949.5,513.5C 947.598,510.663 946.931,507.329 947.5,503.5 Z"/></g>
<g><path style="opacity:1" fill="#adacad" d="M 949.5,518.5 C 950.207,521.786 950.54,525.119 950.5,528.5C 949.833,528.167 949.167,527.833 948.5,527.5C 948.19,524.287 948.523,521.287 949.5,518.5 Z"/></g>
<g><path style="opacity:1" fill="#7c7f7e" d="M 44.5,514.5 C 44.5,518.833 44.5,523.167 44.5,527.5C 43.8333,527.833 43.1667,528.167 42.5,528.5C 42.3347,524.818 42.5014,521.152 43,517.5C 43.2321,516.263 43.7321,515.263 44.5,514.5 Z"/></g>
<g><path style="opacity:1" fill="#726f71" d="M 948.5,527.5 C 949.167,527.833 949.833,528.167 950.5,528.5C 950.5,536.833 950.5,545.167 950.5,553.5C 949.833,553.5 949.167,553.5 948.5,553.5C 948.5,544.833 948.5,536.167 948.5,527.5 Z"/></g>
<g><path style="opacity:1" fill="#323231" d="M 44.5,527.5 C 44.5,535.167 44.5,542.833 44.5,550.5C 43.8333,550.5 43.1667,550.5 42.5,550.5C 42.5,543.167 42.5,535.833 42.5,528.5C 43.1667,528.167 43.8333,527.833 44.5,527.5 Z"/></g>
<g><path style="opacity:1" fill="#0c003e" d="M 595.5,534.5 C 652.057,577.44 715.39,605.106 785.5,617.5C 785.918,618.222 786.584,618.722 787.5,619C 796.157,620.308 804.823,621.475 813.5,622.5C 844.783,626.102 876.117,626.435 907.5,623.5C 909.833,623.5 912.167,623.5 914.5,623.5C 896.265,713.188 854.265,789.688 788.5,853C 685.908,946.423 565.575,981.756 427.5,959C 412.192,955.173 396.859,951.34 381.5,947.5C 383.341,944.14 385.841,941.14 389,938.5C 393.437,929.806 393.271,921.139 388.5,912.5C 395.785,912.608 402.452,910.775 408.5,907C 417.03,898.136 425.863,889.636 435,881.5C 436.993,879.182 438.159,876.516 438.5,873.5C 442.721,875.106 447.054,876.439 451.5,877.5C 455.754,877.15 459.754,875.984 463.5,874C 473.764,864.016 483.93,853.849 494,843.5C 499.889,833.885 499.723,824.552 493.5,815.5C 500.871,806.085 508.705,797.085 517,788.5C 522.504,779.025 521.338,770.525 513.5,763C 490.577,744.703 468.243,725.703 446.5,706C 448.851,703.981 450.851,701.648 452.5,699C 453.167,698.833 453.833,698.667 454.5,698.5C 458.793,701.654 463.126,704.821 467.5,708C 478.147,711.835 488.48,711.168 498.5,706C 504.333,700.833 510.167,695.667 516,690.5C 525.719,678.717 527.052,666.05 520,652.5C 514.656,646.324 509.156,640.324 503.5,634.5C 502.417,633.635 502.251,632.635 503,631.5C 533.7,598.968 564.533,566.635 595.5,534.5 Z"/></g>
<g><path style="opacity:1" fill="#f6f6f6" d="M 370.5,546.5 C 373.187,546.336 375.854,546.503 378.5,547C 422.797,583.29 464.631,622.456 504,664.5C 504.817,667.964 504.483,671.298 503,674.5C 497.688,680.823 491.521,685.99 484.5,690C 481.366,690.79 478.366,690.457 475.5,689C 435.424,652.594 396.257,615.094 358,576.5C 354.886,573.041 353.886,569.041 355,564.5C 359.485,557.828 364.652,551.828 370.5,546.5 Z"/></g>
<g><path style="opacity:1" fill="#f6f6f6" d="M 448.5,853.5 C 448.804,852.85 449.137,852.183 449.5,851.5C 448.019,850.52 446.685,849.353 445.5,848C 447.932,846.913 447.598,846.413 444.5,846.5C 442.265,842.898 439.931,839.232 437.5,835.5C 432.725,832.131 428.058,828.798 423.5,825.5C 423.719,824.325 423.386,823.325 422.5,822.5C 419.34,820.172 416.673,817.339 414.5,814C 411.151,811.647 408.151,808.98 405.5,806C 403.783,804.441 401.783,803.608 399.5,803.5C 390.396,793.895 381.063,784.395 371.5,775C 363.839,774.33 360.673,777.83 362,785.5C 382.564,811.631 402.398,838.298 421.5,865.5C 413.081,874.922 404.081,883.589 394.5,891.5C 390.768,887.051 387.268,882.384 384,877.5C 369.936,855.096 356.269,832.429 343,809.5C 338.003,805.165 333.669,805.832 330,811.5C 329.333,812.833 329.333,814.167 330,815.5C 345.026,851.729 359.192,888.396 372.5,925.5C 371.394,928.441 369.394,930.608 366.5,932C 358.389,937.053 350.055,941.553 341.5,945.5C 335.188,929.068 329.355,912.401 324,895.5C 320.429,879.142 316.929,862.809 313.5,846.5C 313.59,843.848 312.924,841.515 311.5,839.5C 307.151,835.328 302.985,835.661 299,840.5C 299.412,848.813 299.912,857.146 300.5,865.5C 300.321,871.404 300.988,877.071 302.5,882.5C 304.885,905.464 307.385,928.464 310,951.5C 310.831,959.188 310.665,966.855 309.5,974.5C 298.528,978.497 287.194,980.83 275.5,981.5C 273.223,942.202 271.723,902.869 271,863.5C 266.291,859.231 261.958,859.564 258,864.5C 252.057,906.597 245.223,948.597 237.5,990.5C 231.642,990.822 225.975,990.489 220.5,989.5C 214.112,987.495 207.445,986.495 200.5,986.5C 199.414,986.38 198.747,985.713 198.5,984.5C 209.562,947.479 220.729,910.479 232,873.5C 232.342,866.844 229.175,864.011 222.5,865C 207.303,889.884 192.47,915.051 178,940.5C 170.985,952.543 163.485,964.209 155.5,975.5C 143.389,969.702 132.389,962.369 122.5,953.5C 145.767,924.064 169.6,895.064 194,866.5C 194.821,858.668 191.321,855.835 183.5,858C 152.245,880.209 120.745,902.042 89,923.5C 80.729,913.305 74.229,901.971 69.5,889.5C 107.115,867.693 146.115,848.526 186.5,832C 190.393,828.412 190.393,824.746 186.5,821C 183.97,819.578 181.303,819.245 178.5,820C 139.148,830.371 99.4813,839.538 59.5,847.5C 57.8913,834.895 57.2247,822.228 57.5,809.5C 59.5,809.5 61.5,809.5 63.5,809.5C 75.0402,808.376 86.3736,806.709 97.5,804.5C 119.272,801.337 141.272,799.003 163.5,797.5C 168.731,797.556 173.731,796.889 178.5,795.5C 183.715,795.917 188.549,794.917 193,792.5C 195.607,787.544 194.44,783.711 189.5,781C 154.077,779.338 118.744,777.171 83.5,774.5C 78.7312,773.111 73.7312,772.444 68.5,772.5C 68.3801,761.604 70.5468,750.937 75,740.5C 82.7662,739.562 90.5996,739.562 98.5,740.5C 105.263,742.223 112.263,743.223 119.5,743.5C 150.535,747.336 181.535,751.169 212.5,755C 215.23,753.122 216.897,750.622 217.5,747.5C 217.536,744.699 216.203,742.865 213.5,742C 192.94,736.36 172.273,731.026 151.5,726C 136.791,721.653 122.458,716.32 108.5,710C 107.536,707.353 108.036,704.853 110,702.5C 114.333,696.167 118.667,689.833 123,683.5C 124.117,681.876 125.617,680.876 127.5,680.5C 163.304,693.943 198.971,708.11 234.5,723C 243.191,723.982 246.524,720.315 244.5,712C 214.964,694.405 185.964,676.072 157.5,657C 165.656,647.677 174.323,638.844 183.5,630.5C 211.215,649.693 238.215,669.859 264.5,691C 268.505,692.098 272.005,691.265 275,688.5C 276.373,686.305 276.706,683.971 276,681.5C 247.667,655.167 219.333,628.833 191,602.5C 190.333,601.5 190.333,600.5 191,599.5C 198.65,590.683 206.817,582.349 215.5,574.5C 220.646,578.478 225.646,582.645 230.5,587C 253.195,610.028 276.195,632.695 299.5,655C 308.333,656.833 311.833,653.333 310,644.5C 289.093,619.421 267.259,595.088 244.5,571.5C 251.5,564.833 258.5,558.167 265.5,551.5C 289.472,577.807 313.472,604.141 337.5,630.5C 339.074,631.631 340.741,631.798 342.5,631C 349.049,623.949 356.049,617.449 363.5,611.5C 374.167,621.5 384.5,631.833 394.5,642.5C 338.151,701.015 281.984,759.682 226,818.5C 225.167,825.667 228.333,828.833 235.5,828C 292.068,769.435 348.568,710.935 405,652.5C 416.632,662.297 427.798,672.63 438.5,683.5C 432.551,690.951 426.051,697.951 419,704.5C 418.333,706.167 418.333,707.833 419,709.5C 445.319,732.713 471.819,755.546 498.5,778C 497.683,779.49 496.85,780.99 496,782.5C 490.491,788.209 484.991,793.876 479.5,799.5C 455.604,778.768 431.271,758.601 406.5,739C 398.333,737.833 394.833,741.333 396,749.5C 423.69,775.525 451.023,801.858 478,828.5C 478.667,829.5 478.667,830.5 478,831.5C 469.62,840.382 460.786,848.716 451.5,856.5C 450.145,855.812 449.145,854.812 448.5,853.5 Z"/></g>
<g><path style="opacity:1" fill="#7a7c7c" d="M 42.5,550.5 C 43.1667,550.5 43.8333,550.5 44.5,550.5C 44.5,557.167 44.5,563.833 44.5,570.5C 43.71,569.391 43.21,568.058 43,566.5C 42.5006,561.177 42.334,555.844 42.5,550.5 Z"/></g>
<g><path style="opacity:1" fill="#b1afb2" d="M 948.5,553.5 C 949.167,553.5 949.833,553.5 950.5,553.5C 950.354,557.519 950.021,561.519 949.5,565.5C 948.517,561.702 948.183,557.702 948.5,553.5 Z"/></g>
<g><path style="opacity:1" fill="#a7a3a6" d="M 949.5,570.5 C 949.664,573.187 949.497,575.854 949,578.5C 948.617,579.056 948.117,579.389 947.5,579.5C 946.945,575.988 947.612,572.988 949.5,570.5 Z"/></g>
<g><path style="opacity:1" fill="#c7343e" d="M 918.5,605.5 C 917.796,611.764 916.463,617.764 914.5,623.5C 912.167,623.5 909.833,623.5 907.5,623.5C 909.607,622.532 911.941,622.198 914.5,622.5C 915.131,618.196 915.631,613.863 916,609.5C 916.122,607.563 916.955,606.23 918.5,605.5 Z"/></g>
<g><path style="opacity:1" fill="#5e5f5e" d="M 44.5,575.5 C 47.1732,595.484 50.5066,615.484 54.5,635.5C 53.8333,635.5 53.1667,635.5 52.5,635.5C 48.8503,615.636 46.1836,595.636 44.5,575.5 Z"/></g>
<g><path style="opacity:1" fill="#6d0e3e" d="M 785.5,617.5 C 795.062,618.623 804.395,620.29 813.5,622.5C 804.823,621.475 796.157,620.308 787.5,619C 786.584,618.722 785.918,618.222 785.5,617.5 Z"/></g>
<g><path style="opacity:1" fill="#5b5a5b" d="M 944.5,610.5 C 943.778,616.223 942.778,621.889 941.5,627.5C 940.861,626.903 940.528,626.07 940.5,625C 941.054,622.176 941.554,619.343 942,616.5C 942.24,614.148 943.073,612.148 944.5,610.5 Z"/></g>
<g><path style="opacity:1" fill="#7f7c7d" d="M 941.5,628.5 C 940.628,632.862 939.628,637.196 938.5,641.5C 937.876,641.083 937.543,640.416 937.5,639.5C 938.333,636.167 939.167,632.833 940,629.5C 940.383,628.944 940.883,628.611 941.5,628.5 Z"/></g>
<g><path style="opacity:1" fill="#929492" d="M 52.5,635.5 C 53.1667,635.5 53.8333,635.5 54.5,635.5C 55.8338,642.168 57.1671,648.835 58.5,655.5C 57.8826,655.389 57.3826,655.056 57,654.5C 55.4959,648.125 53.9959,641.791 52.5,635.5 Z"/></g>
<g><path style="opacity:1" fill="#817f81" d="M 938.5,642.5 C 937.628,646.862 936.628,651.196 935.5,655.5C 934.876,655.083 934.543,654.416 934.5,653.5C 935.064,651.181 935.564,648.847 936,646.5C 936.122,644.563 936.955,643.23 938.5,642.5 Z"/></g>
<g><path style="opacity:1" fill="#b5b5b7" d="M 935.5,656.5 C 935.573,658.027 934.906,659.027 933.5,659.5C 933.285,657.821 933.952,656.821 935.5,656.5 Z"/></g>
<g><path style="opacity:1" fill="#7a7978" d="M 58.5,656.5 C 60.1628,658.438 60.8294,660.772 60.5,663.5C 59.3882,661.401 58.7215,659.067 58.5,656.5 Z"/></g>
<g><path style="opacity:1" fill="#80817f" d="M 60.5,664.5 C 61.5862,664.62 62.2528,665.287 62.5,666.5C 64.6331,674.232 66.9664,681.899 69.5,689.5C 69.3764,690.107 69.0431,690.44 68.5,690.5C 65.2613,682.11 62.5947,673.444 60.5,664.5 Z"/></g>
<g><path style="opacity:1" fill="#7b777b" d="M 932.5,664.5 C 929.643,675.238 926.477,685.905 923,696.5C 921.953,699.859 920.453,702.859 918.5,705.5C 922.963,692.276 927.13,678.943 931,665.5C 931.383,664.944 931.883,664.611 932.5,664.5 Z"/></g>
<g><path style="opacity:1" fill="#8b8f8c" d="M 68.5,691.5 C 71.2923,694.835 72.959,698.835 73.5,703.5C 71.081,699.936 69.4144,695.936 68.5,691.5 Z"/></g>
<g><path style="opacity:1" fill="#717273" d="M 74.5,705.5 C 76.8573,709.527 78.8573,713.86 80.5,718.5C 77.2317,719.487 73.8984,719.82 70.5,719.5C 73.0277,718.834 75.6944,718.168 78.5,717.5C 76.9574,713.539 75.624,709.539 74.5,705.5 Z"/></g>
<g><path style="opacity:1" fill="#868386" d="M 916.5,710.5 C 914.243,718.353 911.41,726.02 908,733.5C 907.502,735.544 906.335,736.878 904.5,737.5C 908.13,728.256 912.13,719.256 916.5,710.5 Z"/></g>
<g><path style="opacity:1" fill="#7b7d7d" d="M 63.5,722.5 C 60.4474,725.39 57.9474,728.724 56,732.5C 53.9657,741.421 51.4657,750.088 48.5,758.5C 50.0558,748.277 52.5558,738.277 56,728.5C 58.0809,725.913 60.5809,723.913 63.5,722.5 Z"/></g>
<g><path style="opacity:1" fill="#606160" d="M 98.5,740.5 C 105.773,740.563 112.773,741.563 119.5,743.5C 112.263,743.223 105.263,742.223 98.5,740.5 Z"/></g>
<g><path style="opacity:1" fill="#797679" d="M 901.5,743.5 C 900.201,748.764 897.868,753.431 894.5,757.5C 896.32,752.527 898.653,747.86 901.5,743.5 Z"/></g>
<g><path style="opacity:1" fill="#7e7e81" d="M 893.5,759.5 C 893.741,762.034 892.741,763.7 890.5,764.5C 890.75,762.326 891.75,760.659 893.5,759.5 Z"/></g>
<g><path style="opacity:1" fill="#828082" d="M 887.5,769.5 C 887.573,771.027 886.906,772.027 885.5,772.5C 885.427,770.973 886.094,769.973 887.5,769.5 Z"/></g>
<g><path style="opacity:1" fill="#5c5b5a" d="M 47.5,765.5 C 47.3748,771.203 47.7081,776.87 48.5,782.5C 45.0369,776.996 44.7036,771.329 47.5,765.5 Z"/></g>
<g><path style="opacity:1" fill="#a0a1a1" d="M 68.5,772.5 C 73.7312,772.444 78.7312,773.111 83.5,774.5C 78.2688,774.556 73.2688,773.889 68.5,772.5 Z"/></g>
<g><path style="opacity:1" fill="#969297" d="M 884.5,775.5 C 883.89,777.434 882.89,779.101 881.5,780.5C 881.259,777.966 882.259,776.3 884.5,775.5 Z"/></g>
<g><path style="opacity:1" fill="#9c989d" d="M 881.5,780.5 C 880.449,783.961 878.449,786.627 875.5,788.5C 877.046,785.368 879.046,782.702 881.5,780.5 Z"/></g>
<g><path style="opacity:1" fill="#575657" d="M 48.5,782.5 C 51.5623,784.51 53.5623,786.843 54.5,789.5C 51.7573,787.761 49.7573,785.427 48.5,782.5 Z"/></g>
<g><path style="opacity:1" fill="#9b999b" d="M 875.5,789.5 C 876.016,790.758 875.35,791.758 873.5,792.5C 873.427,790.973 874.094,789.973 875.5,789.5 Z"/></g>
<g><path style="opacity:1" fill="#8c8d8a" d="M 872.5,793.5 C 872.573,795.027 871.906,796.027 870.5,796.5C 870.427,794.973 871.094,793.973 872.5,793.5 Z"/></g>
<g><path style="opacity:1" fill="#9d9c9c" d="M 178.5,795.5 C 173.731,796.889 168.731,797.556 163.5,797.5C 168.25,795.969 173.25,795.302 178.5,795.5 Z"/></g>
<g><path style="opacity:1" fill="#949395" d="M 870.5,796.5 C 869.66,798.853 868.326,800.853 866.5,802.5C 866.845,799.802 868.178,797.802 870.5,796.5 Z"/></g>
<g><path style="opacity:1" fill="#8f8f90" d="M 44.5,794.5 C 41.4229,797.569 38.7563,800.903 36.5,804.5C 37.3603,799.647 40.027,796.314 44.5,794.5 Z"/></g>
<g><path style="opacity:1" fill="#938e94" d="M 866.5,803.5 C 865.219,806.447 863.219,808.781 860.5,810.5C 861.412,808.405 862.579,806.405 864,804.5C 864.671,803.748 865.504,803.414 866.5,803.5 Z"/></g>
<g><path style="opacity:1" fill="#afb0b0" d="M 97.5,804.5 C 86.3736,806.709 75.0402,808.376 63.5,809.5C 74.567,806.918 85.9003,805.252 97.5,804.5 Z"/></g>
<g><path style="opacity:1" fill="#8b8a8b" d="M 860.5,810.5 C 860.262,812.404 859.262,813.738 857.5,814.5C 857.738,812.596 858.738,811.262 860.5,810.5 Z"/></g>
<g><path style="opacity:1" fill="#8a868a" d="M 857.5,814.5 C 857.262,816.404 856.262,817.738 854.5,818.5C 854.738,816.596 855.738,815.262 857.5,814.5 Z"/></g>
<g><path style="opacity:1" fill="#8c8a8d" d="M 854.5,819.5 C 852.883,822.784 850.55,825.451 847.5,827.5C 848.412,825.405 849.579,823.405 851,821.5C 851.816,820.177 852.983,819.511 854.5,819.5 Z"/></g>
<g><path style="opacity:1" fill="#e5e5e5" d="M 399.5,803.5 C 401.783,803.608 403.783,804.441 405.5,806C 408.151,808.98 411.151,811.647 414.5,814C 416.673,817.339 419.34,820.172 422.5,822.5C 423.386,823.325 423.719,824.325 423.5,825.5C 428.058,828.798 432.725,832.131 437.5,835.5C 439.931,839.232 442.265,842.898 444.5,846.5C 447.598,846.413 447.932,846.913 445.5,848C 446.685,849.353 448.019,850.52 449.5,851.5C 449.137,852.183 448.804,852.85 448.5,853.5C 432.221,836.887 415.888,820.22 399.5,803.5 Z"/></g>
<g><path style="opacity:1" fill="#797979" d="M 36.5,832.5 C 37.9931,833.312 38.6598,834.645 38.5,836.5C 38.4805,837.726 38.1471,838.726 37.5,839.5C 36.7814,837.236 36.448,834.903 36.5,832.5 Z"/></g>
<g><path style="opacity:1" fill="#928e90" d="M 843.5,832.5 C 842.243,835.427 840.243,837.761 837.5,839.5C 838.757,836.573 840.757,834.239 843.5,832.5 Z"/></g>
<g><path style="opacity:1" fill="#838083" d="M 837.5,839.5 C 837.167,841.833 835.833,843.167 833.5,843.5C 834.5,841.833 835.833,840.5 837.5,839.5 Z"/></g>
<g><path style="opacity:1" fill="#79787a" d="M 311.5,839.5 C 312.924,841.515 313.59,843.848 313.5,846.5C 312.076,844.485 311.41,842.152 311.5,839.5 Z"/></g>
<g><path style="opacity:1" fill="#989a98" d="M 37.5,841.5 C 38.1174,841.611 38.6174,841.944 39,842.5C 39.5446,848.793 41.0446,854.793 43.5,860.5C 41.665,859.878 40.4983,858.544 40,856.5C 38.8403,851.547 38.0069,846.547 37.5,841.5 Z"/></g>
<g><path style="opacity:1" fill="#7f7b7f" d="M 827.5,850.5 C 825.833,854.167 823.167,856.833 819.5,858.5C 821.833,855.5 824.5,852.833 827.5,850.5 Z"/></g>
<g><path style="opacity:1" fill="#747573" d="M 43.5,860.5 C 45.8138,862.477 48.1472,864.477 50.5,866.5C 46.9666,865.971 44.6332,863.971 43.5,860.5 Z"/></g>
<g><path style="opacity:1" fill="#808180" d="M 50.5,866.5 C 55.4682,867.164 60.4682,867.664 65.5,868C 64.9558,868.717 64.2891,869.217 63.5,869.5C 62.8333,868.167 62.1667,868.167 61.5,869.5C 61.5,870.167 61.1667,870.5 60.5,870.5C 57.0498,869.47 53.7165,868.137 50.5,866.5 Z"/></g>
<g><path style="opacity:1" fill="#6c676b" d="M 816.5,861.5 C 813.833,866.167 810.167,869.833 805.5,872.5C 808.833,868.5 812.5,864.833 816.5,861.5 Z"/></g>
<g><path style="opacity:1" fill="#a4a4a4" d="M 300.5,865.5 C 301.737,870.96 302.404,876.627 302.5,882.5C 300.988,877.071 300.321,871.404 300.5,865.5 Z"/></g>
<g><path style="opacity:1" fill="#b6b6bb" d="M 801.5,876.5 C 801.5,877.833 800.833,878.5 799.5,878.5C 799.833,877.5 800.5,876.833 801.5,876.5 Z"/></g>
<g><path style="opacity:1" fill="#6a6668" d="M 798.5,879.5 C 797.415,881.587 795.749,882.92 793.5,883.5C 794.585,881.413 796.251,880.08 798.5,879.5 Z"/></g>
<g><path style="opacity:1" fill="#a9a5a9" d="M 791.5,885.5 C 791.027,886.906 790.027,887.573 788.5,887.5C 788.973,886.094 789.973,885.427 791.5,885.5 Z"/></g>
<g><path style="opacity:1" fill="#868787" d="M 60.5,870.5 C 57.9786,872.701 55.4786,875.034 53,877.5C 50.823,881.031 49.6563,884.864 49.5,889C 51.2684,897.138 53.935,904.972 57.5,912.5C 56.2502,912.423 55.4169,911.756 55,910.5C 52.0131,903.542 49.8464,896.376 48.5,889C 48.3891,880.032 52.3891,873.865 60.5,870.5 Z"/></g>
<g><path style="opacity:1" fill="#7a797a" d="M 784.5,891.5 C 782.363,894.973 779.363,897.306 775.5,898.5C 777.637,895.027 780.637,892.694 784.5,891.5 Z"/></g>
<g><path style="opacity:1" fill="#7f7f81" d="M 775.5,898.5 C 774.738,900.262 773.404,901.262 771.5,901.5C 772.262,899.738 773.596,898.738 775.5,898.5 Z"/></g>
<g><path style="opacity:1" fill="#928f92" d="M 770.5,902.5 C 770.027,903.906 769.027,904.573 767.5,904.5C 767.973,903.094 768.973,902.427 770.5,902.5 Z"/></g>
<g><path style="opacity:1" fill="#767477" d="M 766.5,905.5 C 762.614,909.79 757.947,913.123 752.5,915.5C 756.454,911.188 761.12,907.855 766.5,905.5 Z"/></g>
<g><path style="opacity:1" fill="#797979" d="M 61.5,919.5 C 65.137,924.658 68.637,929.991 72,935.5C 74.592,938.762 77.7587,941.262 81.5,943C 90.5904,945.206 98.4238,943.039 105,936.5C 105.383,937.056 105.883,937.389 106.5,937.5C 99.0379,944.366 90.3713,946.532 80.5,944C 71.3367,938.006 65.0034,929.84 61.5,919.5 Z"/></g>
<g><path style="opacity:1" fill="#767576" d="M 746.5,919.5 C 742.053,923.564 737.053,926.898 731.5,929.5C 731.937,927.926 732.937,926.759 734.5,926C 738.66,923.977 742.66,921.811 746.5,919.5 Z"/></g>
<g><path style="opacity:1" fill="#7d7b80" d="M 108.5,938.5 C 108.591,936.302 107.925,935.969 106.5,937.5C 106.5,935.5 107.5,934.5 109.5,934.5C 109.833,935.833 110.167,935.833 110.5,934.5C 111.833,934.167 111.833,933.833 110.5,933.5C 111.688,932.636 112.855,931.636 114,930.5C 113.448,933.906 111.615,936.572 108.5,938.5 Z"/></g>
<g><path style="opacity:1" fill="#918f92" d="M 722.5,934.5 C 720.733,936.89 718.4,938.557 715.5,939.5C 716.833,936.647 719.166,934.981 722.5,934.5 Z"/></g>
<g><path style="opacity:1" fill="#575757" d="M 714.5,939.5 C 709.328,942.345 703.995,945.011 698.5,947.5C 698.369,946.624 698.702,945.957 699.5,945.5C 704.167,943.167 708.833,940.833 713.5,938.5C 714.107,938.624 714.44,938.957 714.5,939.5 Z"/></g>
<g><path style="opacity:1" fill="#7d7d7f" d="M 106.5,940.5 C 106.573,942.027 105.906,943.027 104.5,943.5C 104.427,941.973 105.094,940.973 106.5,940.5 Z"/></g>
<g><path style="opacity:1" fill="#6a6b68" d="M 693.5,949.5 C 691.999,951.366 689.999,952.699 687.5,953.5C 688.733,951.204 690.733,949.87 693.5,949.5 Z"/></g>
<g><path style="opacity:1" fill="#6a6a6a" d="M 104.5,943.5 C 103.692,946.959 103.025,950.459 102.5,954C 102.725,956.528 103.058,959.028 103.5,961.5C 99.3174,955.306 99.6507,949.306 104.5,943.5 Z"/></g>
<g><path style="opacity:1" fill="#646464" d="M 686.5,953.5 C 678.652,957.01 670.652,960.344 662.5,963.5C 662.577,962.25 663.244,961.417 664.5,961C 671.7,958.656 678.7,955.822 685.5,952.5C 686.107,952.624 686.44,952.957 686.5,953.5 Z"/></g>
<g><path style="opacity:1" fill="#535453" d="M 332.5,963.5 C 335.034,963.259 336.7,964.259 337.5,966.5C 335.326,966.25 333.659,965.25 332.5,963.5 Z"/></g>
<g><path style="opacity:1" fill="#656665" d="M 362.5,969.5 C 359.016,968.343 355.683,967.01 352.5,965.5C 352.56,964.957 352.893,964.624 353.5,964.5C 357.088,965.452 360.088,967.119 362.5,969.5 Z"/></g>
<g><path style="opacity:1" fill="#6c6a6b" d="M 660.5,964.5 C 658.491,966.065 656.157,967.065 653.5,967.5C 653.577,966.25 654.244,965.417 655.5,965C 656.872,964.598 658.205,964.098 659.5,963.5C 660.107,963.624 660.44,963.957 660.5,964.5 Z"/></g>
<g><path style="opacity:1" fill="#878989" d="M 350.5,965.5 C 346.598,967.489 342.598,967.823 338.5,966.5C 341.846,965.729 345.346,965.062 349,964.5C 349.765,964.57 350.265,964.903 350.5,965.5 Z"/></g>
<g><path style="opacity:1" fill="#808080" d="M 652.5,967.5 C 652.158,968.338 651.492,968.672 650.5,968.5C 650.711,966.576 651.377,966.243 652.5,967.5 Z"/></g>
<g><path style="opacity:1" fill="#5e5d5e" d="M 332.5,963.5 C 331.553,966.658 331.553,969.991 332.5,973.5C 332.322,976.737 331.655,979.737 330.5,982.5C 330.17,975.8 330.503,969.134 331.5,962.5C 332.107,962.624 332.44,962.957 332.5,963.5 Z"/></g>
<g><path style="opacity:1" fill="#696a6b" d="M 104.5,963.5 C 108.217,967.546 111.884,971.546 115.5,975.5C 110.386,972.724 106.719,968.724 104.5,963.5 Z"/></g>
<g><path style="opacity:1" fill="#5d5f5d" d="M 363.5,969.5 C 363.735,968.903 364.235,968.57 365,968.5C 369.259,969.518 373.092,971.185 376.5,973.5C 372.03,972.565 367.697,971.232 363.5,969.5 Z"/></g>
<g><path style="opacity:1" fill="#5e5f5e" d="M 377.5,973.5 C 383.811,974.386 389.811,976.053 395.5,978.5C 389.181,977.611 383.181,975.944 377.5,973.5 Z"/></g>
<g><path style="opacity:1" fill="#5e5e5e" d="M 642.5,970.5 C 636.385,972.87 630.051,974.87 623.5,976.5C 623.62,975.414 624.287,974.747 625.5,974.5C 630.933,973.142 636.266,971.475 641.5,969.5C 642.107,969.624 642.44,969.957 642.5,970.5 Z"/></g>
<g><path style="opacity:1" fill="#8d8e8e" d="M 395.5,978.5 C 397.179,978.285 398.179,978.952 398.5,980.5C 396.973,980.573 395.973,979.906 395.5,978.5 Z"/></g>
<g><path style="opacity:1" fill="#7e7e81" d="M 613.5,978.5 C 613.179,980.048 612.179,980.715 610.5,980.5C 610.821,978.952 611.821,978.285 613.5,978.5 Z"/></g>
<g><path style="opacity:1" fill="#b7b7b8" d="M 178.5,982.5 C 177.833,982.5 177.5,982.833 177.5,983.5C 176.833,983.5 176.167,983.5 175.5,983.5C 176.569,981.031 177.902,978.698 179.5,976.5C 179.833,976.833 180.167,977.167 180.5,977.5C 179.544,979.075 178.877,980.742 178.5,982.5 Z"/></g>
<g><path style="opacity:1" fill="#878787" d="M 399.5,980.5 C 400.947,979.115 401.947,979.448 402.5,981.5C 401.391,981.443 400.391,981.11 399.5,980.5 Z"/></g>
<g><path style="opacity:1" fill="#797678" d="M 609.5,980.5 C 608.791,981.404 607.791,981.737 606.5,981.5C 607.053,979.448 608.053,979.115 609.5,980.5 Z"/></g>
<g><path style="opacity:1" fill="#797876" d="M 120.5,978.5 C 123.135,979.473 125.135,981.14 126.5,983.5C 123.606,982.744 121.606,981.077 120.5,978.5 Z"/></g>
<g><path style="opacity:1" fill="#939093" d="M 604.5,981.5 C 604.158,982.338 603.492,982.672 602.5,982.5C 602.711,980.576 603.377,980.243 604.5,981.5 Z"/></g>
<g><path style="opacity:1" fill="#535656" d="M 414.5,983.5 C 414.917,982.876 415.584,982.543 416.5,982.5C 418.819,983.064 421.153,983.564 423.5,984C 424.056,984.383 424.389,984.883 424.5,985.5C 421.061,985.212 417.728,984.546 414.5,983.5 Z"/></g>
<g><path style="opacity:1" fill="#838280" d="M 600.5,982.5 C 599.791,983.404 598.791,983.737 597.5,983.5C 598.053,981.448 599.053,981.115 600.5,982.5 Z"/></g>
<g><path style="opacity:1" fill="#858683" d="M 596.5,983.5 C 595.292,984.234 593.959,984.567 592.5,984.5C 592.62,983.414 593.287,982.747 594.5,982.5C 595.416,982.543 596.083,982.876 596.5,983.5 Z"/></g>
<g><path style="opacity:1" fill="#5f625f" d="M 131.5,986.5 C 129.77,985.974 128.436,984.974 127.5,983.5C 127.435,983.062 127.601,982.728 128,982.5C 130.071,983.103 131.238,984.436 131.5,986.5 Z"/></g>
<g><path style="opacity:1" fill="#888985" d="M 591.5,984.5 C 590.292,985.234 588.959,985.567 587.5,985.5C 588.538,983.481 589.872,983.147 591.5,984.5 Z"/></g>
<g><path style="opacity:1" fill="#60615f" d="M 425.5,985.5 C 427.455,984.805 429.621,984.805 432,985.5C 433.681,985.608 434.848,986.275 435.5,987.5C 432.061,987.212 428.728,986.546 425.5,985.5 Z"/></g>
<g><path style="opacity:1" fill="#808480" d="M 585.5,985.5 C 584.292,986.234 582.959,986.567 581.5,986.5C 582.538,984.481 583.872,984.147 585.5,985.5 Z"/></g>
<g><path style="opacity:1" fill="#9d9d9d" d="M 200.5,986.5 C 207.445,986.495 214.112,987.495 220.5,989.5C 213.565,989.415 206.899,988.415 200.5,986.5 Z"/></g>
<g><path style="opacity:1" fill="#656767" d="M 437.5,987.5 C 437.917,986.876 438.584,986.543 439.5,986.5C 443.482,986.861 447.149,987.861 450.5,989.5C 446.092,989.075 441.758,988.408 437.5,987.5 Z"/></g>
<g><path style="opacity:1" fill="#525353" d="M 580.5,986.5 C 575.886,987.445 571.219,988.112 566.5,988.5C 566.611,987.883 566.944,987.383 567.5,987C 570.84,986.547 574.174,986.047 577.5,985.5C 578.726,985.52 579.726,985.853 580.5,986.5 Z"/></g>
<g><path style="opacity:1" fill="#8b898d" d="M 173.5,986.5 C 173.573,988.027 172.906,989.027 171.5,989.5C 171.427,987.973 172.094,986.973 173.5,986.5 Z"/></g>
<g><path style="opacity:1" fill="#616060" d="M 565.5,988.5 C 536.802,992.374 508.135,993.374 479.5,991.5C 507.28,992.321 534.947,990.987 562.5,987.5C 563.726,987.52 564.726,987.853 565.5,988.5 Z"/></g>
<g><path style="opacity:1" fill="#5b5b5b" d="M 454.5,989.5 C 461.738,989.18 468.738,989.847 475.5,991.5C 468.3,991.422 461.3,990.755 454.5,989.5 Z"/></g>
<g><path style="opacity:1" fill="#808085" d="M 169.5,991.5 C 169.027,992.906 168.027,993.573 166.5,993.5C 166.973,992.094 167.973,991.427 169.5,991.5 Z"/></g>
<g><path style="opacity:1" fill="#8f8b8e" d="M 260.5,996.5 C 259.778,996.082 259.278,995.416 259,994.5C 257.918,996.618 256.751,998.618 255.5,1000.5C 255.635,997.226 256.635,994.226 258.5,991.5C 259.95,992.85 260.617,994.516 260.5,996.5 Z"/></g>
<g><path style="opacity:1" fill="#7f817f" d="M 178.5,982.5 C 178.335,986.182 178.501,989.848 179,993.5C 180.689,996.667 182.522,999.667 184.5,1002.5C 178.905,998.307 176.239,992.64 176.5,985.5C 177.338,985.158 177.672,984.492 177.5,983.5C 177.5,982.833 177.833,982.5 178.5,982.5 Z"/></g>
<g><path style="opacity:1" fill="#a8acab" d="M 315.5,995.5 C 314.609,996.11 313.609,996.443 312.5,996.5C 313.053,994.448 314.053,994.115 315.5,995.5 Z"/></g>
<g><path style="opacity:1" fill="#747675" d="M 145.5,993.5 C 152.499,996.166 159.499,996.166 166.5,993.5C 166.53,994.497 166.03,995.164 165,995.5C 157.988,998.463 151.488,997.796 145.5,993.5 Z"/></g>
<g><path style="opacity:1" fill="#797878" d="M 310.5,996.5 C 309.791,997.404 308.791,997.737 307.5,997.5C 308.053,995.448 309.053,995.115 310.5,996.5 Z"/></g>
<g><path style="opacity:1" fill="#8a888a" d="M 306.5,997.5 C 306.158,998.338 305.492,998.672 304.5,998.5C 304.711,996.576 305.377,996.243 306.5,997.5 Z"/></g>
<g><path style="opacity:1" fill="#666666" d="M 270.5,1001.5 C 267.759,1001.29 265.426,1000.29 263.5,998.5C 263.435,998.062 263.601,997.728 264,997.5C 266.314,998.733 268.481,1000.07 270.5,1001.5 Z"/></g>
<g><path style="opacity:1" fill="#606060" d="M 298.5,999.5 C 295.272,1000.55 291.939,1001.21 288.5,1001.5C 288.611,1000.88 288.944,1000.38 289.5,1000C 291.847,999.564 294.181,999.064 296.5,998.5C 297.416,998.543 298.083,998.876 298.5,999.5 Z"/></g>
<g><path style="opacity:1" fill="#525452" d="M 287.5,1001.5 C 281.703,1002.76 276.037,1002.76 270.5,1001.5C 276.367,1001.19 282.034,1001.19 287.5,1001.5 Z"/></g>
<g><path style="opacity:1" fill="#868786" d="M 201.5,1007.5 C 203.483,1007.16 204.817,1007.82 205.5,1009.5C 203.62,1009.77 202.287,1009.1 201.5,1007.5 Z"/></g>
<g><path style="opacity:1" fill="#7c7d7d" d="M 206.5,1009.5 C 207.274,1008.85 208.274,1008.52 209.5,1008.5C 211.03,1008.64 212.03,1009.31 212.5,1010.5C 210.435,1010.48 208.435,1010.15 206.5,1009.5 Z"/></g>
<g><path style="opacity:1" fill="#939294" d="M 247.5,1007.5 C 247.19,1009.14 246.19,1010.14 244.5,1010.5C 244.81,1008.86 245.81,1007.86 247.5,1007.5 Z"/></g>
</svg>
